<svg width="59" height="81" viewBox="0 0 59 81" fill="none" xmlns="http://www.w3.org/2000/svg">
<path d="M42.7732 61.8159C42.7732 71.9652 36.9215 80.2116 29.7059 80.2116C22.5063 80.2116 16.6387 71.9652 16.6387 61.8159C16.6387 54.3942 19.7945 48.0033 24.2983 45.0853C23.0454 44.34 21.9512 43.3409 21.0949 42.1515C20.4764 41.311 19.9848 40.3595 19.6518 39.3446C19.4297 38.7103 19.2712 38.0601 19.1919 37.3782C19.0528 36.3243 19.0688 35.2557 19.2394 34.2065C19.3346 33.6673 19.4615 33.1599 19.6359 32.6524C19.9689 31.6533 20.4447 30.7018 21.0473 29.8455C21.8011 28.7902 22.7416 27.8819 23.8225 27.1654C20.0324 25.2624 17.4633 21.5674 17.4633 17.3649C17.4633 13.6065 19.509 10.2604 22.6331 8.23053C23.5053 7.65963 24.4727 7.18388 25.5035 6.86671C26.8197 6.40682 28.2311 6.16895 29.7059 6.16895C31.1808 6.16895 32.5922 6.40682 33.9084 6.86671C34.9392 7.18388 35.9066 7.65963 36.7788 8.23053C39.9187 10.2604 41.9644 13.6065 41.9644 17.3649C41.9644 21.5833 39.3795 25.2624 35.5894 27.1654C36.6703 27.8819 37.6108 28.7902 38.3646 29.8455H38.3805C38.9672 30.7018 39.443 31.6533 39.776 32.6524C39.9504 33.1599 40.0773 33.6673 40.1566 34.2065H40.1725C40.3431 35.2557 40.3591 36.3243 40.22 37.3782C40.1407 38.0601 39.9822 38.7103 39.7601 39.3446C39.4271 40.3595 38.9355 41.311 38.317 42.1515C37.4607 43.3409 36.3665 44.34 35.1136 45.0853C39.6333 47.9874 42.7732 54.3942 42.7732 61.8159Z" fill="#292E35"/>
<path d="M39.776 32.6526C39.443 31.6535 38.9672 30.702 38.3805 29.8456C42.4402 27.8475 54.9049 20.2355 51.7808 4.1234C51.7403 3.91923 51.7406 3.70907 51.7818 3.50504C51.823 3.30101 51.9041 3.10715 52.0206 2.93465C52.1371 2.76214 52.2865 2.61442 52.4604 2.49999C52.6343 2.38557 52.8291 2.30671 53.0336 2.26797C53.2378 2.22748 53.4479 2.22782 53.6519 2.26898C53.856 2.31014 54.0498 2.3913 54.2223 2.50777C54.3948 2.62425 54.5426 2.77373 54.657 2.9476C54.7714 3.12147 54.8503 3.31627 54.889 3.52078C58.3779 21.52 44.4066 30.2897 39.776 32.6526ZM54.8414 68.6034C54.6353 69.2854 54.0168 69.7135 53.3349 69.7135C53.1763 69.7135 53.0177 69.6977 52.875 69.6501C52.0345 69.3964 51.5588 68.5083 51.8125 67.6678C56.2211 53.2843 42.6464 44.5305 38.317 42.1517C38.9355 41.3112 39.4271 40.3597 39.7602 39.3448C44.5018 42.009 59.9003 52.1108 54.8414 68.6034ZM58.1083 44.7049C57.8387 44.8635 57.5532 44.9428 57.2678 44.9428C56.7444 44.9428 56.2211 44.6732 55.9198 44.1974C51.4795 36.9978 43.2807 37.0612 40.22 37.3784C40.3591 36.3245 40.3431 35.2559 40.1725 34.2067C44.0419 33.8737 53.3825 34.0481 58.6157 42.5323C59.0756 43.2777 58.8536 44.245 58.1083 44.7049ZM21.0473 29.8456C20.4431 30.7078 19.9677 31.6534 19.6359 32.6526C15.0053 30.2897 1.03407 21.52 4.52291 3.52078C4.69735 2.66443 5.52198 2.10939 6.39419 2.26797C7.25054 2.42655 7.80558 3.26705 7.647 4.1234C4.52291 20.2355 16.9717 27.8475 21.0473 29.8456ZM7.59942 67.6678C7.66141 67.8667 7.68349 68.0758 7.66438 68.2833C7.64528 68.4907 7.58538 68.6923 7.48812 68.8765C7.39086 69.0607 7.25816 69.2239 7.09764 69.3566C6.93712 69.4894 6.75196 69.5891 6.55277 69.6501C6.39419 69.6977 6.23561 69.7135 6.09288 69.7135C5.41097 69.7135 4.77664 69.2854 4.57048 68.6034C-0.488331 52.1108 14.9101 42.009 19.6518 39.3448C19.9848 40.3597 20.4764 41.3112 21.0949 42.1517C16.7814 44.5305 3.1908 53.3001 7.59942 67.6678ZM19.0967 35.9828C19.0967 36.4586 19.1284 36.9185 19.1919 37.3784C16.1154 37.0612 7.91659 37.0136 3.49211 44.1974C3.19081 44.6732 2.68334 44.9428 2.14415 44.9428C1.8524 44.9425 1.56662 44.86 1.31952 44.7049C1.14212 44.597 0.987783 44.4551 0.865392 44.2873C0.743 44.1196 0.654961 43.9293 0.606332 43.7274C0.557703 43.5255 0.549442 43.316 0.582025 43.1109C0.614608 42.9058 0.687393 42.7092 0.796196 42.5323C6.02945 34.064 15.37 33.8737 19.2395 34.2067C19.1443 34.7776 19.0967 35.3802 19.0967 35.9828ZM39.1734 3.18775L36.7788 8.23071C35.9066 7.65981 34.9392 7.18406 33.9084 6.86689L36.303 1.82394C36.6836 1.04688 37.6351 0.697993 38.4281 1.07859C39.2051 1.45919 39.554 2.39484 39.1734 3.18775ZM25.5035 6.86689C24.4727 7.18406 23.5053 7.65981 22.6331 8.23071L20.2385 3.18775C19.8738 2.39484 20.2068 1.45919 20.9997 1.07859C21.7768 0.697993 22.7283 1.04688 23.1089 1.82394L25.5035 6.86689Z" fill="#292E35"/>
</svg>
